<svg width="24" height="24" viewBox="0 0 24 24" fill="none" xmlns="http://www.w3.org/2000/svg">
<g id="Attach file" clip-path="url(#clip0_412_2226)">
<path id="Vector" d="M19.5726 10.5861L11.4409 18.7178C9.87817 20.2805 7.34673 20.2805 5.78402 18.7178C4.22132 17.1551 4.22132 14.6236 5.78402 13.0609L14.6229 4.2221C15.5987 3.24629 17.1826 3.24629 18.1584 4.2221C19.1342 5.1979 19.1342 6.78182 18.1584 7.75763L10.7338 15.1822C10.3449 15.5712 9.70847 15.5712 9.31956 15.1822C8.93065 14.7933 8.93065 14.1569 9.31956 13.768L16.0371 7.05052L14.9764 5.98986L8.2589 12.7074C7.28309 13.6832 7.28309 15.2671 8.2589 16.2429C9.2347 17.2187 10.8186 17.2187 11.7944 16.2429L19.2191 8.81829C20.7818 7.25558 20.7818 4.72414 19.2191 3.16143C17.6563 1.59873 15.1249 1.59873 13.5622 3.16143L4.72336 12.0003C2.57376 14.1499 2.57376 17.6288 4.72336 19.7784C6.87297 21.928 10.3519 21.928 12.5015 19.7784L20.6333 11.6467L19.5726 10.5861Z" fill="black"/>
</g>
<defs>
<clipPath id="clip0_412_2226">
<rect width="24" height="24" fill="white"/>
</clipPath>
</defs>
</svg>
