<svg width="37" height="25" viewBox="0 0 37 25" fill="none" xmlns="http://www.w3.org/2000/svg">
<g id="Mask group">
<mask id="mask0_412_2512" style="mask-type:alpha" maskUnits="userSpaceOnUse" x="0" y="0" width="37" height="25">
<g id="Group">
<path id="Vector" d="M10.9252 0.0470581C11.9119 0.0470581 12.8986 0.141175 13.8383 0.32941C14.6371 0.517646 15.3889 0.847057 16.0936 1.31764C16.7045 1.78823 17.2213 2.4 17.5502 3.10588C17.9261 4 18.114 4.94118 18.067 5.88235C18.114 6.91765 17.8321 7.95294 17.3153 8.84706C16.7514 9.69411 15.9527 10.3529 15.0599 10.7765C16.3286 11.1059 17.4092 11.9059 18.114 12.9412C18.8188 14.0706 19.1477 15.3882 19.1477 16.7059C19.1477 17.7882 18.9598 18.8235 18.4899 19.7647C18.067 20.6118 17.4562 21.3176 16.7514 21.9294C15.9997 22.4941 15.1069 22.9176 14.2142 23.1529C13.2745 23.4353 12.2878 23.5294 11.3011 23.5294H0.400391V0H10.9252V0.0470581ZM10.2674 9.55294C11.0192 9.6 11.8179 9.36471 12.4287 8.89412C13.0396 8.37647 13.3685 7.57647 13.2745 6.72941C13.2745 6.25882 13.1805 5.78824 12.9926 5.36471C12.8046 5.03529 12.5697 4.75294 12.2408 4.5647C11.9119 4.37647 11.536 4.18823 11.1601 4.14117C10.7373 4.04706 10.3144 4.04706 9.89151 4.04706H5.28691V9.55294H10.2674ZM10.5493 19.6235C11.0192 19.6235 11.489 19.5765 11.9119 19.4824C12.3348 19.3882 12.7107 19.2 13.0865 18.9647C13.4154 18.7294 13.6974 18.4 13.8853 18.0235C14.1202 17.5529 14.2142 17.0353 14.1672 16.5176C14.2612 15.5294 13.8853 14.5882 13.1805 13.9294C12.4287 13.3647 11.536 13.1294 10.5963 13.1765H5.28691V19.6706H10.5493V19.6235Z" fill="#191919"/>
<path id="Vector_2" d="M26.1013 19.5297C26.9 20.2356 27.9337 20.612 28.9674 20.565C29.8132 20.565 30.6119 20.3297 31.2697 19.8591C31.8335 19.4826 32.2094 18.965 32.4444 18.3532H36.3442C35.9213 20.0944 34.8876 21.6473 33.478 22.7297C32.1155 23.6709 30.471 24.0944 28.7795 24.0473C27.6048 24.0473 26.4302 23.8591 25.3025 23.3885C24.3158 22.965 23.4231 22.3532 22.7183 21.5532C22.0135 20.7061 21.4497 19.765 21.0738 18.7297C20.6509 17.5532 20.463 16.3297 20.51 15.1061C20.51 13.8826 20.6979 12.7061 21.1208 11.5297C22.2484 8.23556 25.3495 6.02379 28.8265 6.07085C30.0951 6.02379 31.3167 6.3532 32.4444 6.91791C33.4311 7.48262 34.3238 8.23556 34.9816 9.17673C35.6394 10.165 36.1562 11.2473 36.3912 12.4238C36.6731 13.6473 36.7671 14.965 36.7201 16.2356H25.0676C24.9266 17.412 25.3025 18.5885 26.1013 19.5297ZM31.1757 10.5414C30.5179 9.88262 29.6252 9.55321 28.6855 9.60026C28.0747 9.60026 27.4639 9.69438 26.947 9.97673C26.5242 10.212 26.1483 10.5414 25.8194 10.9179C25.5375 11.2944 25.3495 11.6709 25.2086 12.1414C25.1146 12.5179 25.0206 12.8944 25.0206 13.2709H32.2564C32.1624 12.2826 31.7866 11.3414 31.1757 10.5414Z" fill="#191919"/>
<path id="Vector_3" d="M33.1023 1.59961H24.0811V3.90549H33.1023V1.59961Z" fill="#191919"/>
</g>
</mask>
<g mask="url(#mask0_412_2512)">
<rect id="Rectangle 11865" x="0.00195312" y="0.046875" width="37" height="24" fill="white"/>
</g>
</g>
</svg>
