<svg width="64" height="40" viewBox="0 0 64 40" fill="none" xmlns="http://www.w3.org/2000/svg">
<path id="Vector" d="M12.68 40C14.72 40 16.6 38.84 17.48 37.04L23.16 25.68C23.72 24.56 24 23.36 24 22.12V4C24 1.8 22.2 0 20 0H4C1.8 0 0 1.8 0 4V20C0 22.2 1.8 24 4 24H12L7.88 32.24C6.08 35.8 8.68 40 12.68 40ZM52.68 40C54.72 40 56.6 38.84 57.48 37.04L63.16 25.68C63.72 24.56 64 23.36 64 22.12V4C64 1.8 62.2 0 60 0H44C41.8 0 40 1.8 40 4V20C40 22.2 41.8 24 44 24H52L47.88 32.24C46.08 35.8 48.68 40 52.68 40Z" fill="#333331"/>
</svg>
