<svg width="25" height="24" viewBox="0 0 25 24" fill="none" xmlns="http://www.w3.org/2000/svg">
<g id="Mask group">
<mask id="mask0_412_2518" style="mask-type:alpha" maskUnits="userSpaceOnUse" x="0" y="0" width="25" height="24">
<path id="Vector" d="M7.76154 0.0839251C6.48475 0.144165 5.61282 0.347925 4.85058 0.647445C4.0617 0.954885 3.39306 1.36745 2.72778 2.03513C2.0625 2.70281 1.65282 3.37193 1.34754 4.16201C1.0521 4.92593 0.851945 5.79857 0.795545 7.07609C0.739145 8.35361 0.726665 8.76425 0.732905 12.023C0.739145 15.2817 0.753545 15.6902 0.815465 16.9703C0.876425 18.2469 1.07946 19.1186 1.37898 19.881C1.6869 20.6699 2.09898 21.3383 2.7669 22.0038C3.43482 22.6694 4.10346 23.0781 4.89546 23.3838C5.65866 23.6788 6.53155 23.8799 7.80883 23.9358C9.08611 23.9918 9.49722 24.0047 12.755 23.9985C16.0127 23.9922 16.4229 23.9778 17.7028 23.9171C18.9827 23.8564 19.8499 23.6519 20.6126 23.3538C21.4015 23.0452 22.0703 22.6338 22.7354 21.9657C23.4004 21.2975 23.8099 20.6279 24.1149 19.8374C24.4106 19.0742 24.6115 18.2013 24.6669 16.925C24.7228 15.6441 24.736 15.2351 24.7298 11.9769C24.7235 8.71865 24.7089 8.31017 24.6482 7.03049C24.5875 5.75081 24.3842 4.88177 24.0849 4.11881C23.7765 3.32993 23.3649 2.66201 22.6972 1.99601C22.0295 1.33001 21.3595 0.920805 20.5691 0.616485C19.8055 0.321045 18.9331 0.119685 17.6558 0.0644851C16.3785 0.00928514 15.9674 -0.00487487 12.7084 0.00136513C9.44946 0.00760513 9.04146 0.0215251 7.76154 0.0839251ZM7.9017 21.777C6.7317 21.7262 6.09642 21.5318 5.67306 21.369C5.11242 21.153 4.71306 20.8919 4.29114 20.4741C3.86922 20.0562 3.61002 19.6554 3.39114 19.096C3.22674 18.6726 3.02874 18.0381 2.97402 16.8681C2.9145 15.6035 2.90202 15.2238 2.89506 12.0201C2.8881 8.81633 2.90034 8.43713 2.95578 7.17209C3.0057 6.00305 3.2013 5.36705 3.36378 4.94393C3.57978 4.38257 3.83994 3.98393 4.25874 3.56225C4.67754 3.14057 5.07714 2.88089 5.63706 2.66201C6.05994 2.49689 6.6945 2.30057 7.86402 2.24489C9.12954 2.18489 9.50874 2.17289 12.712 2.16593C15.9153 2.15897 16.2955 2.17097 17.5615 2.22664C18.7305 2.27753 19.3667 2.4712 19.7894 2.63464C20.3503 2.85065 20.7494 3.11009 21.1711 3.52961C21.5927 3.94913 21.8527 4.34729 22.0715 4.90841C22.2369 5.33009 22.4332 5.96441 22.4884 7.13465C22.5487 8.40017 22.5623 8.7796 22.5681 11.9826C22.5739 15.1857 22.5626 15.5661 22.5071 16.8306C22.456 18.0006 22.2621 18.6362 22.0991 19.06C21.8831 19.6204 21.6227 20.02 21.2037 20.4414C20.7847 20.8629 20.3855 21.1226 19.8254 21.3414C19.403 21.5063 18.7677 21.7031 17.5991 21.7588C16.3336 21.8183 15.9544 21.8308 12.7499 21.8378C9.54546 21.8447 9.16746 21.8318 7.90194 21.777M17.6843 5.58641C17.6848 5.87123 17.7697 6.14952 17.9284 6.38607C18.087 6.62262 18.3123 6.80681 18.5756 6.91535C18.8389 7.02389 19.1285 7.05189 19.4078 6.99583C19.6871 6.93976 19.9434 6.80214 20.1444 6.60037C20.3455 6.3986 20.4822 6.14174 20.5372 5.86228C20.5922 5.58283 20.5632 5.29333 20.4537 5.03039C20.3442 4.76746 20.1592 4.5429 19.922 4.38512C19.6849 4.22735 19.4063 4.14344 19.1215 4.14401C18.7396 4.14477 18.3737 4.29715 18.1042 4.56764C17.8347 4.83813 17.6837 5.20458 17.6843 5.58641ZM6.56994 12.0119C6.57666 15.4151 9.3405 18.1677 12.743 18.1612C16.1455 18.1547 18.8999 15.3911 18.8935 11.9879C18.887 8.58473 16.1224 5.83145 12.7195 5.83817C9.3165 5.84489 6.56346 8.60921 6.56994 12.0119ZM8.73138 12.0076C8.72982 11.2165 8.96289 10.4426 9.40112 9.78395C9.83935 9.12527 10.4631 8.61134 11.1934 8.30714C11.9237 8.00294 12.7278 7.92213 13.5041 8.07494C14.2803 8.22774 14.9938 8.6073 15.5543 9.16561C16.1149 9.72393 16.4972 10.4359 16.6531 11.2115C16.809 11.9872 16.7314 12.7916 16.4301 13.5231C16.1288 14.2547 15.6173 14.8804 14.9604 15.3212C14.3034 15.7621 13.5305 15.9982 12.7394 15.9998C12.2141 16.0009 11.6937 15.8985 11.2079 15.6984C10.7222 15.4984 10.2806 15.2046 9.90844 14.8339C9.53625 14.4632 9.24073 14.0228 9.03877 13.5378C8.83681 13.0529 8.73236 12.5329 8.73138 12.0076Z" fill="black"/>
</mask>
<g mask="url(#mask0_412_2518)">
<rect id="Rectangle 11866" x="1.0127" width="24" height="24" fill="white"/>
</g>
</g>
</svg>
