<svg width="25" height="24" viewBox="0 0 25 24" fill="none" xmlns="http://www.w3.org/2000/svg">
<g id="Mask group">
<mask id="mask0_412_2509" style="mask-type:alpha" maskUnits="userSpaceOnUse" x="0" y="0" width="25" height="24">
<path id="Path 2520" d="M20.79 20.4496H17.1746V14.8805C17.1746 13.5525 17.1505 11.8429 15.2943 11.8429C13.4113 11.8429 13.1232 13.2899 13.1232 14.7838V20.4492H9.50789V8.99689H12.9786V10.562H13.0272C13.3745 9.97782 13.8764 9.49726 14.4795 9.17149C15.0825 8.84572 15.7641 8.68693 16.4516 8.71203C20.1159 8.71203 20.7915 11.0828 20.7915 14.167L20.79 20.4496ZM5.42862 7.43144C5.01367 7.43151 4.60801 7.31055 4.26295 7.08385C3.91789 6.85715 3.64895 6.53489 3.49008 6.15783C3.33122 5.78077 3.28959 5.36584 3.37047 4.96551C3.45135 4.56517 3.6511 4.19743 3.94446 3.90876C4.23782 3.6201 4.61162 3.42348 5.01858 3.34378C5.42554 3.26408 5.84738 3.30488 6.23077 3.46101C6.61416 3.61713 6.94187 3.88158 7.17247 4.22091C7.40306 4.56025 7.52619 4.95922 7.52626 5.36738C7.52631 5.63839 7.47208 5.90675 7.36669 6.15715C7.26131 6.40754 7.10682 6.63507 6.91204 6.82674C6.71726 7.0184 6.48598 7.17045 6.23146 7.27421C5.97694 7.37796 5.70413 7.43139 5.42862 7.43144ZM7.23627 20.4496H3.61719V8.99689H7.23627V20.4496ZM22.5923 0.00163516H1.80051C1.32859 -0.00360329 0.873843 0.175663 0.536231 0.500042C0.198618 0.824421 0.00575948 1.26737 0 1.73156V22.2681C0.00556235 22.7325 0.198308 23.1758 0.535909 23.5005C0.87351 23.8252 1.32836 24.0048 1.80051 23.9999H22.5923C23.0654 24.0057 23.5215 23.8266 23.8605 23.5019C24.1994 23.1772 24.3934 22.7334 24.4 22.2681V1.73008C24.3933 1.26497 24.1991 0.821515 23.8601 0.497144C23.5212 0.172773 23.0652 -0.00598143 22.5923 0.000152822" fill="black"/>
</mask>
<g mask="url(#mask0_412_2509)">
<rect id="Rectangle 11865" width="25" height="24" fill="white"/>
</g>
</g>
</svg>
