<svg width="131" height="32" viewBox="0 0 131 32" fill="none" xmlns="http://www.w3.org/2000/svg">
<g id="Asset 1 4" clip-path="url(#clip0_412_2556)">
<g id="Layer 1">
<g id="Clip path group">
<mask id="mask0_412_2556" style="mask-type:luminance" maskUnits="userSpaceOnUse" x="0" y="0" width="131" height="32">
<g id="clippath">
<path id="Vector" d="M131 0H0V32H131V0Z" fill="white"/>
</g>
</mask>
<g mask="url(#mask0_412_2556)">
<g id="Group">
<g id="Group_2">
<path id="Vector_2" d="M114.963 0C106.831 0 100.13 5.88919 99.0703 13.5333C99.3346 12.7985 100.026 12.3077 100.801 12.3077H107.54C109.929 12.3077 111.779 12.9835 113.014 14.2322C113.786 15.0287 114.302 16.0463 114.49 17.146C114.579 17.6162 114.625 18.0941 114.625 18.572V18.626C114.655 19.8413 114.338 21.0387 113.71 22.0742C112.973 23.2176 111.878 24.0809 110.6 24.5229L110.96 25.0573L115.186 31.3037H114.615H114.96C123.819 31.3037 130.998 24.2968 130.998 15.6531C130.998 7.00947 123.821 0.00513891 114.963 0.00513891" fill="#F48641"/>
<path id="Vector_3" d="M98.957 17.1487H99.0002C98.9824 16.9791 98.9697 16.8043 98.957 16.6348V17.1487Z" fill="#020202"/>
<path id="Vector_4" d="M98.957 14.1673V14.6812C98.9824 14.2984 99.0206 13.9104 99.0739 13.543C98.9977 13.746 98.9596 13.9618 98.957 14.1776" fill="#020202"/>
<path id="Vector_5" d="M110.962 25.0494L110.601 24.5227C111.876 24.0807 112.972 23.2225 113.714 22.0842C114.339 21.0462 114.654 19.8488 114.626 18.636V18.5821C114.626 18.1016 114.583 17.6237 114.494 17.1535C114.303 16.0563 113.787 15.0414 113.015 14.2448C111.78 12.9961 109.93 12.3203 107.541 12.3203H100.802C100.029 12.3203 99.3382 12.8085 99.0714 13.5434C99.0206 13.9185 98.9824 14.2988 98.957 14.6816V16.6396C98.957 16.8143 98.9824 16.989 98.9977 17.1535H98.957V24.4687C99.234 23.5283 99.6635 22.6418 100.228 21.8427C101.201 20.4732 102.515 19.3889 104.039 18.7028L103.155 17.1612H109.572V17.174L106.372 22.7806L105.917 21.9866L105.409 21.077C104.311 22.1433 103.724 23.6388 103.806 25.1753C103.861 26.0669 104.166 26.9277 104.68 27.6548C106.011 29.6744 108.611 31.2521 110.626 31.3086H115.2L110.962 25.0494Z" fill="white"/>
<path id="Vector_6" d="M113.805 21.1826C113.805 21.4832 113.769 21.7839 113.703 22.0768C113.769 21.7839 113.802 21.4832 113.805 21.1826Z" fill="#020202"/>
<path id="Vector_7" d="M21.8242 20.5404C21.8242 20.6766 21.8318 20.8127 21.8471 20.9489V20.1318C21.8318 20.268 21.8242 20.4042 21.8242 20.5404Z" fill="#020202"/>
<path id="Vector_8" d="M36.528 27.2752H26.6174V24.125H31.7252C33.7073 24.1019 35.3006 22.4703 35.3006 20.4661V19.7261H26.62V16.7121L32.8713 16.743C33.0263 16.743 33.1787 16.7327 33.3312 16.7121C35.1329 16.4783 36.4823 14.9264 36.4823 13.0892V12.3184H24.2846C24.2338 12.3184 24.1855 12.3184 24.1347 12.3184C22.887 12.3954 21.8985 13.4155 21.8477 14.6797V31.6818H32.9958C34.9906 31.6818 36.6068 30.0476 36.6068 28.0306C36.6093 27.7788 36.5839 27.527 36.5306 27.2803" fill="white"/>
<path id="Vector_9" d="M74.3004 12.9733V12.3103H61.7648C61.4929 12.2898 61.2185 12.2898 60.9466 12.3103C59.587 12.4928 58.507 13.5617 58.2987 14.9338C58.2758 15.0905 58.2656 15.2498 58.2656 15.4091C58.2656 15.5735 58.2987 16.8454 58.2987 16.8454H63.8892V28.9424C63.8664 29.1403 63.8664 29.3433 63.8892 29.5411V31.6763H66.4507C67.6527 31.5941 68.6133 30.6254 68.6946 29.4101V16.8429H71.0553C72.8113 16.663 74.181 15.2267 74.2928 13.446V12.9733" fill="white"/>
<path id="Vector_10" d="M125.458 14.5404C125.207 13.6565 124.513 12.973 123.634 12.7418C124.117 12.5851 124.536 12.2767 124.833 11.863C125.156 11.3825 125.316 10.8096 125.291 10.2289C125.354 9.39893 125.08 8.5767 124.528 7.95746C123.857 7.40503 123.001 7.13781 122.14 7.20975H116.501V8.39427C116.501 8.96469 116.905 9.45546 117.461 9.55824H121.311C121.791 9.48886 122.236 9.82803 122.305 10.3137C122.317 10.3984 122.317 10.4858 122.305 10.5706V10.9046C122.373 11.3903 122.04 11.8425 121.56 11.9119C121.476 11.9221 121.39 11.9221 121.306 11.9119H118.16V13.1812C118.196 13.713 118.579 14.155 119.098 14.2603H121.639C122.119 14.191 122.564 14.5276 122.635 15.0132C122.645 15.098 122.645 15.1853 122.635 15.2701V15.9408C122.668 16.3724 122.348 16.7476 121.924 16.781H121.804C120.828 16.781 119.441 16.7219 117.647 16.614C117.596 16.6037 117.543 16.5985 117.492 16.5985H117.454C116.864 16.6191 116.384 17.0816 116.333 17.6751C116.333 17.7111 116.32 17.7445 116.32 17.7805C116.32 17.8139 116.325 17.8499 116.333 17.8833C116.369 18.3021 116.62 18.6695 116.996 18.8494L117.794 18.9188C119.471 19.0549 121.029 19.1217 122.467 19.1243C123.957 19.3787 125.367 18.3638 125.618 16.8581C125.669 16.5549 125.669 16.244 125.618 15.9382V15.7712C125.626 15.3601 125.573 14.9515 125.456 14.5584" fill="white"/>
<path id="Vector_11" d="M85.9872 11.9893C85.2909 11.9893 84.5997 12.0561 83.9161 12.1897C79.22 13.0376 75.8021 17.1693 75.8047 21.9921V22.0461C75.8047 22.3853 75.8225 22.7193 75.853 23.0482C76.3333 28.2128 80.5059 31.995 85.9338 31.995C91.6464 31.995 96.1163 27.6013 96.1163 21.9921V21.9536C96.1163 16.2802 91.7633 12.0021 85.9872 12.0021M80.7905 21.9536C80.7905 18.8703 83.0013 16.5372 85.9338 16.5372C88.8663 16.5372 91.133 18.8882 91.133 22.005V22.059C91.133 25.1423 88.9197 27.4728 85.9872 27.4728C83.0547 27.4728 80.7879 25.1243 80.7879 22.005V21.9536H80.7905Z" fill="white"/>
<path id="Vector_12" d="M16.0907 12.3105C15.2318 12.2206 14.4034 12.6548 13.979 13.4154L13.7401 14.068L9.83942 24.7004L5.2958 12.3105H0L7.73787 31.7947V31.8101H10.7644C11.1939 31.8101 11.603 31.6328 11.9003 31.3194C11.9435 31.2731 11.9816 31.2269 12.0197 31.1755C12.068 31.1112 12.1112 31.0444 12.1493 30.9751L12.2357 30.7644L12.2764 30.6641L19.5594 12.3234L16.0907 12.3105Z" fill="white"/>
<path id="Vector_13" d="M55.5375 27.2594C54.6329 26.0903 53.0116 25.7768 51.7436 26.5271L51.553 26.6504C50.6636 27.2003 49.6369 27.4829 48.5925 27.4624C45.7616 27.4624 43.6296 25.1113 43.6296 21.992V21.9535C43.6296 18.8701 45.7642 16.5371 48.5925 16.5371C49.0194 16.5371 49.4463 16.5884 49.8631 16.6886C50.6559 16.8891 51.4005 17.2462 52.0561 17.737C52.3102 17.9194 52.5644 18.1275 52.8337 18.3562L53.037 18.5387L53.3216 18.7956L54.3381 17.6085L54.6761 17.2128L56.3787 15.2318L56.1245 14.9748C55.5655 14.4121 54.948 13.9136 54.2797 13.4897C53.8934 13.2404 53.4893 13.0195 53.0701 12.8319C51.6622 12.2435 50.1477 11.9583 48.6255 11.9917C43.2611 11.8504 38.8014 16.1285 38.6591 21.5526V22.0485C38.532 27.4136 42.7275 31.8664 48.0334 31.9949H48.036C48.1808 31.9949 48.3257 31.9949 48.4705 31.9949C49.5353 32.0077 50.5949 31.869 51.6216 31.5838C53.3648 31.0596 54.9327 30.0601 56.1525 28.6957L56.2948 28.5467L56.5489 28.2897L55.5553 27.262" fill="white"/>
</g>
</g>
</g>
</g>
</g>
</g>
<defs>
<clipPath id="clip0_412_2556">
<rect width="131" height="32" fill="white"/>
</clipPath>
</defs>
</svg>
