<svg version="1.2" xmlns="http://www.w3.org/2000/svg" viewBox="0 0 52 48" width="52" height="48"><style>.a{fill:#fff}.b{fill:#fff;stroke:#fff;stroke-width:.4}</style><path fill-rule="evenodd" class="a" d="m28.6 9.4q0.1-1.4 0.5-2.6h-24.1v32.5h42v-5.9q-0.6 0-1.2 0c-3.5 0-6.8-1.2-9.5-3.4 2 1.3 4.3 1.9 6.7 1.9 1.8 0 3.4-0.3 5-1v10.1c0 0.3-0.2 0.5-0.5 0.5h-16.2c-0.3 0-0.4 0.4-0.2 0.5 2.2 2.2 4.5 3.7 4.8 4q0.1 0 0.1 0 0 0 0 0v1.7c0 0.2-0.1 0.3-0.3 0.3h-19.4c-0.2 0-0.3-0.1-0.3-0.3v-1.7q0 0 0 0 0 0 0.1 0c0.3-0.3 2.5-1.8 4.7-4 0.2-0.1 0.1-0.5-0.2-0.5h-16.1c-0.3 0-0.5-0.2-0.5-0.5v-36.5c0-0.3 0.2-0.5 0.5-0.5h26.2c-0.9 1.6-1.7 3.4-2.1 5.4zm-2.6 34.4c0.8 0 1.5-0.7 1.5-1.5 0-0.9-0.7-1.5-1.5-1.5-0.8 0-1.5 0.6-1.5 1.5 0 0.8 0.7 1.5 1.5 1.5z"/><path class="b" d="m47.7 6.7l-3.9 2.9q0 0 0 0-0.3 0.2-0.7 0.3 0.4 0.2 0.7 0.4 0 0 0 0l3.9 2.9q0.2 0.1 0.3 0.3 0.1 0.2 0.1 0.5v1.8 0.2l-0.2-0.1-7.2-5.4v-1.1-0.1l7.2-5.4 0.2-0.1v0.2 1.9q0 0.2-0.1 0.4-0.1 0.2-0.3 0.4z"/><path class="b" d="m36.3 16.2l3.9 2.8q0 0 0 0 0.3 0.3 0.7 0.4-0.4 0.1-0.7 0.4 0 0 0 0l-3.9 2.8q-0.2 0.2-0.3 0.4-0.1 0.2-0.1 0.5v1.8 0.2l0.2-0.1 7.2-5.4v-0.1-1-0.1l-7.2-5.4-0.2-0.1v0.2 1.8q0 0.3 0.1 0.5 0.1 0.2 0.3 0.4z"/></svg>