<svg width="44" height="44" viewBox="0 0 44 44" fill="none" xmlns="http://www.w3.org/2000/svg">
<g id="Group 31803">
<path id="Vector" d="M38.03 6.83405H43.1406C43.6153 6.83405 44 6.44934 44 5.97467V0.859375C44 0.384705 43.6153 0 43.1406 0H38.03C37.5554 0 37.1707 0.384705 37.1707 0.859375V2.55765H25.4147V0.859375C25.4147 0.384705 25.03 0 24.5553 0H19.4447C18.97 0 18.5853 0.384705 18.5853 0.859375V2.55765H6.82935V0.859375C6.82935 0.384705 6.44464 0 5.96997 0H0.859375C0.384705 0 0 0.384705 0 0.859375V5.97467C0 6.44934 0.384705 6.83405 0.859375 6.83405H5.96997C6.44464 6.83405 6.82935 6.44934 6.82935 5.97467V4.2764H13.9783C11.4609 5.41776 9.19128 7.09421 7.34195 9.21411C4.44223 12.5381 2.76578 16.7444 2.57208 21.1406H0.859375C0.384705 21.1406 0 21.5253 0 22V27.1153C0 27.59 0.384705 27.9747 0.859375 27.9747H5.96997C6.44464 27.9747 6.82935 27.59 6.82935 27.1153V22C6.82935 21.5253 6.44464 21.1406 5.96997 21.1406H4.29285C4.68896 13.042 10.6465 6.14587 18.5853 4.59564V5.97501C18.5853 6.44968 18.97 6.83438 19.4447 6.83438H24.5553C25.03 6.83438 25.4147 6.44968 25.4147 5.97501V4.59564C33.3535 6.14587 39.311 13.042 39.7072 21.1406H38.03C37.5554 21.1406 37.1707 21.5253 37.1707 22V27.1153C37.1707 27.59 37.5554 27.9747 38.03 27.9747H43.1406C43.6153 27.9747 44 27.59 44 27.1153V22C44 21.5253 43.6153 21.1406 43.1406 21.1406H41.4279C41.2342 16.7444 39.5578 12.5381 36.6581 9.21411C34.8087 7.09421 32.5391 5.41776 30.0217 4.2764H37.1707V5.97501C37.1707 6.44934 37.5554 6.83405 38.03 6.83405ZM5.1106 5.1153H1.71875V1.71875H5.1106V5.1153ZM5.1106 26.2559H1.71875V22.8594H5.1106V26.2559ZM42.2812 26.2559H38.8894V22.8594H42.2812V26.2559ZM23.6959 5.1153H20.3041V1.71875H23.6959V5.1153ZM38.8894 1.71875H42.2812V5.1153H38.8894V1.71875Z" fill="white"/>
<path id="Vector_2" d="M22.7511 9.46823C22.6 9.19397 22.3117 9.02344 21.9985 9.02344C21.6853 9.02344 21.3969 9.19397 21.2459 9.46823L17.6764 15.9485C17.4475 16.3644 17.5989 16.8871 18.0148 17.1157C18.4301 17.3446 18.9531 17.1935 19.182 16.7776L21.1391 13.2243V19.5619C19.946 19.9298 19.0766 21.0426 19.0766 22.3548C19.0766 23.9658 20.3875 25.2767 21.9985 25.2767C23.6095 25.2767 24.9204 23.9658 24.9204 22.3548C24.9204 21.0426 24.0509 19.9298 22.8579 19.5619V13.2243L28.7536 23.9289C26.8167 25.888 25.4964 28.401 24.9835 31.1094H19.0135C18.5002 28.401 17.1799 25.888 15.2433 23.9289L16.2282 22.1407C16.4572 21.7251 16.3058 21.2024 15.8902 20.9734C15.4746 20.7445 14.9516 20.8956 14.7227 21.3115L13.4202 23.6768C13.2288 24.0239 13.3 24.4573 13.5924 24.7252C15.4431 26.4201 16.7281 28.6652 17.2598 31.1094H16.4595C15.0379 31.1094 13.8814 32.2662 13.8814 33.6875C13.8814 34.6906 14.4571 35.5607 15.2954 35.9867V43.1406C15.2954 43.6153 15.6801 44 16.1547 44C16.6294 44 17.0141 43.6153 17.0141 43.1406V36.2656H26.9829V43.1406C26.9829 43.6153 27.3676 44 27.8422 44C28.3169 44 28.7016 43.6153 28.7016 43.1406V35.9867C29.5398 35.5607 30.1155 34.6902 30.1155 33.6875C30.1155 32.2658 28.9591 31.1094 27.5374 31.1094H26.7371C27.2689 28.6649 28.5539 26.4201 30.4046 24.7248C30.697 24.4569 30.7681 24.0239 30.5768 23.6765L22.7511 9.46823ZM21.9985 23.558C21.3351 23.558 20.7954 23.0182 20.7954 22.3548C20.7954 21.6912 21.3351 21.1517 21.9985 21.1517C22.6618 21.1517 23.2016 21.6912 23.2016 22.3548C23.2016 23.0182 22.6618 23.558 21.9985 23.558ZM28.3968 33.6875C28.3968 34.1615 28.0114 34.5469 27.5374 34.5469H16.4595C15.9855 34.5469 15.6002 34.1615 15.6002 33.6875C15.6002 33.2135 15.9855 32.8281 16.4595 32.8281H27.5374C28.0114 32.8281 28.3968 33.2135 28.3968 33.6875Z" fill="white"/>
<path id="Vector_3" d="M16.8965 19.9478C17.1227 19.9478 17.3443 19.8564 17.5041 19.6967C17.6639 19.5359 17.7559 19.3153 17.7559 19.0884C17.7559 18.8621 17.6639 18.6416 17.5041 18.4808C17.3443 18.321 17.1227 18.229 16.8965 18.229C16.6696 18.229 16.448 18.321 16.2882 18.4808C16.1284 18.6416 16.0371 18.8621 16.0371 19.0884C16.0371 19.3153 16.1284 19.5359 16.2882 19.6967C16.448 19.8564 16.6696 19.9478 16.8965 19.9478Z" fill="white"/>
</g>
</svg>
