<svg width="44" height="44" viewBox="0 0 44 44" fill="none" xmlns="http://www.w3.org/2000/svg">
<g id="XMLID_1745_">
<g id="XMLID_1085_">
<path id="XMLID_1389_" d="M43.1406 41.8218H40.5625V25.4851C40.5625 24.8836 40.1778 24.396 39.7031 24.396H34.2031C33.7285 24.396 33.3438 24.8836 33.3438 25.4851V41.8218H30.9375V36.0495C30.9375 35.448 30.5528 34.9604 30.0781 34.9604C29.6035 34.9604 29.2188 35.448 29.2188 36.0495V41.8218H25.4375V20.4752H29.2188V26.2475C29.2188 26.849 29.6035 27.3366 30.0781 27.3366C30.5528 27.3366 30.9375 26.849 30.9375 26.2475V19.3861C30.9375 18.7846 30.5528 18.297 30.0781 18.297H24.5781C24.1035 18.297 23.7188 18.7846 23.7188 19.3861V41.8218H21.3125V32.4554C21.3125 31.8539 20.9278 31.3663 20.4531 31.3663H14.9531C14.4785 31.3663 14.0938 31.8539 14.0938 32.4554V41.8218H11.6875V27.2277C11.6875 26.6262 11.3028 26.1386 10.8281 26.1386H5.32813C4.85349 26.1386 4.46875 26.6262 4.46875 27.2277V41.8218H1.71875V1.08911C1.71875 0.487594 1.33401 0 0.859375 0C0.384742 0 0 0.487594 0 1.08911V42.9109C0 43.5124 0.384742 44 0.859375 44H43.1406C43.6153 44 44 43.5124 44 42.9109C44 42.3094 43.6153 41.8218 43.1406 41.8218ZM6.1875 41.8218V28.3168H9.96875V41.8218H6.1875ZM15.8125 41.8218V33.5446H19.5938V41.8218H15.8125ZM35.0625 41.8218V26.5743H38.8438V41.8218H35.0625Z" fill="white"/>
<path id="XMLID_2506_" d="M13.6236 22.4305C13.7915 22.6432 14.0114 22.7495 14.2313 22.7495C14.4512 22.7495 14.6712 22.6432 14.839 22.4305L27.7433 6.07644L33.7701 13.7143C34.1057 14.1394 34.6499 14.1394 34.9855 13.7143L40.0282 7.32358L41.2165 8.8296C41.3798 9.03653 41.5993 9.1486 41.8243 9.1486C41.8985 9.1486 41.9731 9.13651 42.0467 9.11146C42.3433 9.01072 42.5749 8.7172 42.6544 8.34135L43.9692 2.12265C44.0487 1.7468 43.9639 1.34579 43.7468 1.07057C43.5296 0.795458 43.2132 0.687746 42.9166 0.788706L38.0097 2.45504C37.7131 2.55579 37.4815 2.8493 37.402 3.22515C37.3225 3.601 37.4074 4.00201 37.6244 4.27723L38.8129 5.78336L34.3778 11.4039L28.3511 3.76611C28.0155 3.34082 27.4713 3.34092 27.1357 3.76611L14.2313 20.1202L6.02177 9.71602C5.68627 9.29084 5.14203 9.29084 4.80644 9.71602C4.47077 10.1413 4.47077 10.8309 4.80644 11.2563L13.6236 22.4305ZM41.9237 3.381L41.3794 5.95555L39.8922 4.07084L41.9237 3.381Z" fill="white"/>
<path id="XMLID_2507_" d="M30.0781 30.0596C29.8521 30.0596 29.6304 30.1761 29.4705 30.3787C29.3107 30.5813 29.2188 30.8622 29.2188 31.1487C29.2188 31.4351 29.3107 31.7161 29.4705 31.9187C29.6304 32.1213 29.8521 32.2378 30.0781 32.2378C30.3041 32.2378 30.5259 32.1213 30.6857 31.9187C30.8455 31.7161 30.9375 31.4351 30.9375 31.1487C30.9375 30.8622 30.8455 30.5813 30.6857 30.3787C30.5259 30.1761 30.3041 30.0596 30.0781 30.0596Z" fill="white"/>
</g>
</g>
</svg>
