<svg width="44" height="42" viewBox="0 0 44 42" fill="none" xmlns="http://www.w3.org/2000/svg">
<g id="Group">
<path id="Vector" d="M44 22.7734C44 19.9328 42.2297 17.3842 39.6327 16.3913C39.6873 15.8692 39.7149 15.3441 39.7149 14.824C39.7149 6.67745 33.1531 0.0498047 25.0875 0.0498047C21.9136 0.0498047 18.8946 1.05914 16.3567 2.9688C14.0218 4.72579 12.2876 7.08999 11.3156 9.83236C10.828 9.75823 10.3338 9.72074 9.84019 9.72074C8.41285 9.72074 7.03699 10.0225 5.75085 10.6177C5.42721 10.7675 5.28507 11.1538 5.4334 11.4806C5.58173 11.8074 5.96423 11.9511 6.28779 11.8012C7.40429 11.2845 8.59942 11.0226 9.84019 11.0226C10.4368 11.0226 11.0342 11.0855 11.6157 11.2095C11.9403 11.2789 12.2639 11.0878 12.3636 10.7684C13.198 8.09533 14.8897 5.69624 17.1269 4.01277C19.4405 2.27184 22.1933 1.35164 25.0875 1.35164C32.4423 1.35164 38.4258 7.39525 38.4258 14.8239C38.4258 15.4628 38.3802 16.1104 38.2901 16.7486C38.2448 17.0704 38.4414 17.3768 38.7509 17.4663C41.0825 18.1401 42.7109 20.3225 42.7109 22.7734C42.7109 25.1417 41.1959 27.2383 39.0249 27.9949C38.9807 27.7924 38.9273 27.5903 38.8635 27.3888C38.661 26.7477 38.0985 26.277 37.4296 26.1894C36.8837 26.1187 36.3359 26.0641 35.8028 26.0274C35.6319 26.0152 35.4839 25.905 35.4193 25.747L35.4101 25.724C35.342 25.5591 35.3692 25.3761 35.4814 25.2462C35.8367 24.8342 36.1856 24.4045 36.5187 23.9687C36.9304 23.4297 36.9988 22.6947 36.6929 22.0963C36.0656 20.8697 35.1325 19.9275 33.9197 19.2965C33.3275 18.9877 32.6003 19.0565 32.0666 19.4719C31.6358 19.8077 31.2104 20.1601 30.8025 20.5189C30.6732 20.6324 30.4908 20.6602 30.3265 20.5915C30.3237 20.5903 30.3163 20.5874 30.3135 20.5862C30.1493 20.5176 30.0401 20.3681 30.0285 20.1949C29.9908 19.6499 29.9365 19.0973 29.8671 18.5518C29.7809 17.8779 29.3153 17.3096 28.6798 17.1034C27.3787 16.6841 26.0592 16.684 24.757 17.1038C24.1227 17.3096 23.657 17.8778 23.5706 18.5523C23.5007 19.1022 23.4467 19.6552 23.4101 20.1947C23.3981 20.3673 23.2886 20.5173 23.1305 20.5834C23.1302 20.5836 23.1199 20.5877 23.1196 20.5879C23.1168 20.589 23.1141 20.5901 23.1113 20.5913C22.947 20.6601 22.7653 20.6325 22.6366 20.5191C22.2258 20.1578 21.7999 19.8052 21.3708 19.4714C20.8374 19.0563 20.1102 18.9877 19.5182 19.2962C18.3049 19.9281 17.3717 20.8702 16.7442 22.0974C16.4402 22.6951 16.5086 23.4292 16.9193 23.9688C17.2519 24.4039 17.6008 24.8336 17.9566 25.2462C18.0687 25.3761 18.096 25.5596 18.0252 25.7319L18.0214 25.7417C17.9527 25.906 17.805 26.0152 17.6363 26.0272C17.1011 26.0641 16.5536 26.1186 16.0083 26.1894C15.3411 26.2766 14.7784 26.7469 14.5743 27.3886C14.4791 27.6899 14.4067 27.9923 14.3552 28.2953H9.84027C5.12505 28.2953 1.28906 24.4211 1.28906 19.659C1.28906 17.139 2.37548 14.7507 4.26972 13.1063C4.53965 12.8719 4.57041 12.4608 4.33838 12.1882C4.10635 11.9156 3.69944 11.8845 3.42942 12.1189C1.24996 14.0109 0 16.7591 0 19.659C0 25.139 4.41427 29.5973 9.8401 29.5973H14.2672C14.2883 30.183 14.3905 30.7686 14.5745 31.3506C14.7782 31.9913 15.341 32.4616 16.0077 32.5487C16.5337 32.6178 17.0812 32.6727 17.6362 32.7118C17.8062 32.7235 17.9544 32.8339 18.0199 32.9933L18.0243 33.0043C18.0254 33.0071 18.0265 33.0099 18.0277 33.0127C18.0959 33.1789 18.0685 33.3629 17.9562 33.493C17.6007 33.9053 17.2518 34.335 16.9188 34.7707C16.508 35.3092 16.4395 36.0435 16.7447 36.642C17.3714 37.8685 18.3045 38.8109 19.518 39.4429C20.1108 39.752 20.8384 39.6826 21.3699 39.2676C21.7968 38.9364 22.2229 38.584 22.6375 38.2193C22.7653 38.1064 22.9468 38.0791 23.1112 38.1479C23.1139 38.1491 23.1167 38.1503 23.1195 38.1514L23.1253 38.1537C23.289 38.2218 23.398 38.3713 23.41 38.5427C23.4467 39.0845 23.5006 39.6379 23.5706 40.188C23.6572 40.8626 24.1233 41.4307 24.7579 41.6352C25.4085 41.845 26.0636 41.9498 26.7188 41.9498C27.3739 41.9498 28.0291 41.845 28.6796 41.6352C29.3144 41.4307 29.7805 40.8626 29.8671 40.1871C29.9363 39.6429 29.9906 39.09 30.0285 38.5425C30.0401 38.3707 30.1489 38.2217 30.3071 38.1557L30.3181 38.1513C30.3208 38.1502 30.3236 38.1491 30.3264 38.1478C30.491 38.079 30.6732 38.1065 30.802 38.2201C31.2133 38.5818 31.639 38.9342 32.0662 39.2664C32.5994 39.6826 33.3268 39.7518 33.9194 39.4431C35.1327 38.8117 36.0659 37.8691 36.6927 36.6425C36.9993 36.0439 36.9308 35.309 36.5185 34.7703C36.1855 34.3347 35.8365 33.905 35.4813 33.493C35.3692 33.3631 35.3421 33.1795 35.4104 33.0139C35.4117 33.0107 35.413 33.0076 35.4142 33.0045L35.4162 32.9991C35.4839 32.8337 35.6315 32.7237 35.8023 32.7119C36.054 32.6942 36.3095 32.6726 36.5619 32.6478C36.9162 32.6129 37.1753 32.2945 37.1407 31.9366C37.1062 31.5788 36.7908 31.3165 36.4366 31.352C36.1961 31.3757 35.9526 31.3963 35.7137 31.4131C35.0513 31.4587 34.4808 31.8761 34.2225 32.5078L34.2183 32.5183C33.9628 33.1432 34.0741 33.844 34.5093 34.3482C34.8479 34.7408 35.1806 35.1505 35.4984 35.5663C35.6055 35.7062 35.6249 35.8938 35.5475 36.0449C35.0387 37.0407 34.313 37.7737 33.3285 38.286C33.179 38.3639 32.993 38.3444 32.8536 38.2356C32.4459 37.9185 32.0405 37.583 31.6489 37.2386C31.1497 36.799 30.4556 36.6862 29.8366 36.9437L29.8213 36.9499C29.201 37.208 28.7876 37.7844 28.7425 38.4528C28.7064 38.9742 28.6547 39.5018 28.5887 40.0205C28.5661 40.1963 28.448 40.3431 28.2877 40.3949C27.232 40.7353 26.2056 40.7352 25.1498 40.3949C24.9896 40.3432 24.8714 40.1963 24.849 40.0213C24.7824 39.4975 24.7309 38.9701 24.6959 38.4528C24.6494 37.7836 24.2357 37.2078 23.6112 36.9478L23.6002 36.9435C22.9808 36.6861 22.287 36.7993 21.7899 37.2384C21.396 37.5848 20.9905 37.9202 20.583 38.2365C20.4447 38.3445 20.2587 38.3641 20.1089 38.2859C19.1244 37.7732 18.3987 37.0402 17.8905 36.0455C17.8134 35.8944 17.8328 35.706 17.9396 35.566C18.2568 35.1511 18.5895 34.7414 18.9282 34.3485C19.3635 33.844 19.4752 33.1427 19.2198 32.5174L19.2134 32.5012C18.9562 31.8755 18.3855 31.4587 17.7251 31.4133C17.1967 31.3759 16.6749 31.3237 16.1737 31.2579C15.9997 31.2352 15.8537 31.1154 15.8024 30.9539C15.4654 29.8877 15.4654 28.8511 15.802 27.786C15.8538 27.6234 15.9997 27.5037 16.1731 27.4809C16.6926 27.4136 17.2144 27.3616 17.7253 27.3264C18.387 27.2795 18.9573 26.8622 19.2136 26.2372C19.2149 26.2344 19.216 26.2316 19.2171 26.2288L19.2187 26.2246C19.4758 25.5991 19.3646 24.8965 18.9287 24.3913C18.5897 23.9982 18.257 23.5885 17.9407 23.1746C17.8333 23.0336 17.8138 22.8444 17.8904 22.694C18.3991 21.6991 19.125 20.9663 20.1095 20.4535C20.2591 20.3756 20.4454 20.3949 20.5843 20.503C20.9932 20.8211 21.399 21.1569 21.7901 21.501C22.2893 21.9405 22.9832 22.0531 23.602 21.7957L23.6078 21.7933C23.6095 21.7926 23.6161 21.7899 23.6178 21.7892C24.2367 21.5303 24.6499 20.9542 24.6963 20.2849C24.7312 19.7698 24.7827 19.2428 24.8493 18.719C24.8718 18.5432 24.9904 18.3957 25.1502 18.3439C26.2059 18.0036 27.2323 18.0036 28.2869 18.3435C28.4479 18.3958 28.5665 18.5432 28.5889 18.7183C28.6551 19.2385 28.7068 19.7658 28.7427 20.2846C28.7878 20.9534 29.2008 21.5299 29.8205 21.7892C29.8222 21.7899 29.8287 21.7926 29.8305 21.7933L29.8365 21.7957C30.4545 22.053 31.1486 21.9404 31.649 21.5012C32.0383 21.1588 32.4439 20.8228 32.8542 20.503C32.993 20.3949 33.1794 20.3757 33.3292 20.4538C34.3132 20.9659 35.039 21.6987 35.5479 22.6938C35.625 22.8449 35.6056 23.0333 35.4985 23.1736C35.1811 23.5889 34.8484 23.9986 34.5098 24.3911C34.0731 24.8972 33.9623 25.6002 34.2176 26.2178L34.225 26.236C34.4802 26.8616 35.0503 27.2794 35.7141 27.3265C36.2232 27.3616 36.7453 27.4135 37.2651 27.4809C37.4391 27.5037 37.5846 27.623 37.6358 27.7852C37.9243 28.697 37.963 29.6216 37.7506 30.5331C37.6692 30.883 37.8839 31.2334 38.2304 31.3158C38.5767 31.398 38.9238 31.1812 39.0054 30.8312C39.1228 30.3272 39.1791 29.8205 39.1747 29.3139C42.0012 28.4621 44 25.7968 44 22.7734Z" fill="white"/>
<path id="Vector_2" d="M26.7168 23.8672C23.7126 23.8672 21.2686 26.3356 21.2686 29.3698C21.2686 32.404 23.7126 34.8724 26.7168 34.8724C29.721 34.8724 32.1651 32.404 32.1651 29.3698C32.1651 26.3356 29.721 23.8672 26.7168 23.8672ZM26.7168 25.1691C28.6427 25.1691 30.2666 26.4983 30.7377 28.2958H22.6959C23.1671 26.4983 24.791 25.1691 26.7168 25.1691ZM26.7168 33.5705C24.4992 33.5705 22.6816 31.8084 22.564 29.5978H30.8697C30.752 31.8084 28.9344 33.5705 26.7168 33.5705Z" fill="white"/>
</g>
</svg>
