<svg width="64" height="40" viewBox="0 0 64 40" fill="none" xmlns="http://www.w3.org/2000/svg">
<path id="Vector" d="M51.32 0C49.28 0 47.4 1.16 46.52 2.96L40.84 14.32C40.28 15.44 40 16.64 40 17.88V36C40 38.2 41.8 40 44 40H60C62.2 40 64 38.2 64 36V20C64 17.8 62.2 16 60 16H52L56.12 7.76C57.92 4.2 55.32 0 51.32 0ZM11.32 0C9.28 0 7.4 1.16 6.52 2.96L0.839996 14.32C0.279995 15.44 0 16.64 0 17.88V36C0 38.2 1.8 40 4 40H20C22.2 40 24 38.2 24 36V20C24 17.8 22.2 16 20 16H12L16.12 7.76C17.92 4.2 15.32 0 11.32 0Z" fill="#333331"/>
</svg>
